<svg xmlns="http://www.w3.org/2000/svg" viewBox="0 0 52.52 49.17"><defs><style>.cls-1{fill:#fff;}.cls-2{fill:#71b7d3;}</style></defs><g id="Laag_2" data-name="Laag 2"><g id="Layer_1" data-name="Layer 1"><g id="chancesnow"><path class="cls-1" d="M44.22,15.8a14.08,14.08,0,0,0,.22-2.43A13.36,13.36,0,0,0,19.92,6,9.25,9.25,0,0,0,7,14.52v.3a10.19,10.19,0,0,0,3.18,19.87h5c1.58,0,1.5-2.65,0-2.65h-5A7.54,7.54,0,0,1,8.7,17.11L10,16.86l-.2-1.26a6.19,6.19,0,0,1-.1-1.08A6.59,6.59,0,0,1,19.72,8.89l1.21.74.66-1.25a10.72,10.72,0,0,1,19.68,8.29l-.6,1.86,2-.14H43A6.83,6.83,0,1,1,43,32H37.31a1.33,1.33,0,1,0,0,2.65H43A9.48,9.48,0,0,0,44.22,15.8Z"/><path class="cls-2" d="M35.59,37.61l-5.09,0h0A4,4,0,0,0,30,36.47l2.28-2.3a1.08,1.08,0,1,0-1.54-1.52l-2.28,2.29a4.37,4.37,0,0,0-1.16-.48l0-5.08a1.09,1.09,0,0,0-2.17,0v5.08A4.37,4.37,0,0,0,24,35L21.8,32.8a1.09,1.09,0,0,0-1.54,1.53l2.18,2.17h0A4.09,4.09,0,0,0,22,37.67h0l-5.08,0a1.09,1.09,0,0,0,0,2.17l5.08,0h0A4.33,4.33,0,0,0,22.46,41l-2.28,2.3A1.08,1.08,0,0,0,21,45.14a1.15,1.15,0,0,0,.77-.32L24,42.52a4,4,0,0,0,1.17.48l0,5.09a1.08,1.08,0,1,0,2.16,0V43a4.44,4.44,0,0,0,1.17-.48h0l2.17,2.15a1.05,1.05,0,0,0,.77.32,1.09,1.09,0,0,0,.77-1.86L30,41h0a4.33,4.33,0,0,0,.49-1.17l5.08,0a1.09,1.09,0,0,0,0-2.17Zm-9.35,2.81a1.69,1.69,0,1,1,1.69-1.69A1.68,1.68,0,0,1,26.24,40.42Z"/></g></g></g></svg>