<svg xmlns="http://www.w3.org/2000/svg" viewBox="0 0 52.71 52.75"><defs><style>.cls-1{fill:#fff;}.cls-2{fill:#71b7d3;}</style></defs><g id="Laag_2" data-name="Laag 2"><g id="Layer_1" data-name="Layer 1"><g id="chanceflurries"><path class="cls-1" d="M44.38,15.86a14.31,14.31,0,0,0,.22-2.45A13.41,13.41,0,0,0,20,6,9.28,9.28,0,0,0,7,14.57v.31a10.22,10.22,0,0,0,3.2,19.93h5c1.6,0,1.51-2.66,0-2.66h-5a7.56,7.56,0,0,1-1.5-15L10,16.92l-.21-1.27a7.23,7.23,0,0,1-.1-1.08,6.65,6.65,0,0,1,6.64-6.64,6.54,6.54,0,0,1,3.47,1L21,9.67l.66-1.26a10.75,10.75,0,0,1,20.27,5,10.92,10.92,0,0,1-.52,3.32l-.61,1.87,2.07-.14.32,0a6.86,6.86,0,0,1,0,13.71H37.45a1.33,1.33,0,1,0,0,2.66H43.2a9.51,9.51,0,0,0,1.18-19Z"/><path class="cls-2" d="M34.29,43.19a2.07,2.07,0,1,0-2.9.38A2.07,2.07,0,0,0,34.29,43.19Z"/><path class="cls-2" d="M21.5,43.19a2.07,2.07,0,1,0-2.91.38A2.08,2.08,0,0,0,21.5,43.19Z"/><path class="cls-2" d="M27.9,51.94A2.08,2.08,0,0,0,27.51,49a2.07,2.07,0,1,0,.39,2.91Z"/><path class="cls-2" d="M27.9,34.44a2.07,2.07,0,1,0-2.91.38A2.07,2.07,0,0,0,27.9,34.44Z"/></g></g></g></svg>