<svg xmlns="http://www.w3.org/2000/svg" viewBox="0 0 52.52 50.37"><defs><style>.cls-1{fill:#fff;}.cls-2{fill:#71b7d3;}</style></defs><g id="Laag_2" data-name="Laag 2"><g id="Layer_1" data-name="Layer 1"><g id="chancesleet"><path class="cls-1" d="M44.22,15.81A13.36,13.36,0,0,0,19.92,6,9.25,9.25,0,0,0,7,14.52v.31a10.19,10.19,0,0,0,3.18,19.86h5c1.58,0,1.49-2.64,0-2.64h-5A7.54,7.54,0,0,1,8.7,17.12L10,16.87l-.21-1.26a7.26,7.26,0,0,1-.09-1.09A6.61,6.61,0,0,1,19.72,8.89l1.21.75.66-1.26a10.72,10.72,0,0,1,19.68,8.3l-.6,1.85,2-.13.32,0a6.84,6.84,0,0,1,0,13.67H37.31a1.32,1.32,0,1,0,0,2.64H43a9.48,9.48,0,0,0,1.18-18.88Z"/><path class="cls-2" d="M20,38a1.11,1.11,0,0,1-.49-.12A1.07,1.07,0,0,1,19,36.42l3.46-6.63a1.06,1.06,0,0,1,1.88,1L20.89,37.4A1,1,0,0,1,20,38Z"/><path class="cls-2" d="M24.6,45a1.06,1.06,0,0,1-.94-1.54L30.57,29.8a1.06,1.06,0,1,1,1.89.95L25.55,44.41A1.07,1.07,0,0,1,24.6,45Z"/><polygon class="cls-2" points="19.46 42.63 16.69 43.55 15.77 40.78 18.53 39.86 19.46 42.63"/><rect class="cls-2" x="20.89" y="47.06" width="2.91" height="2.92" transform="translate(-14.21 9.57) rotate(-18.46)"/></g></g></g></svg>