<svg xmlns="http://www.w3.org/2000/svg" viewBox="0 0 41.81 41.82"><defs><style>.cls-1{fill:#f5a714;}</style></defs><g id="Laag_2" data-name="Laag 2"><g id="Layer_1" data-name="Layer 1"><g id="clear"><path class="cls-1" d="M20.9,7.22A1.32,1.32,0,0,1,19.58,5.9V1.33a1.33,1.33,0,1,1,2.65,0V5.9A1.32,1.32,0,0,1,20.9,7.22Z"/><path class="cls-1" d="M20.9,41.82a1.33,1.33,0,0,1-1.32-1.33V35.91a1.33,1.33,0,0,1,2.65,0v4.58A1.33,1.33,0,0,1,20.9,41.82Z"/><path class="cls-1" d="M5.9,22.23H1.33a1.32,1.32,0,1,1,0-2.64H5.9a1.32,1.32,0,0,1,0,2.64Z"/><path class="cls-1" d="M40.49,22.23H35.92a1.32,1.32,0,1,1,0-2.64h4.57a1.32,1.32,0,1,1,0,2.64Z"/><path class="cls-1" d="M32,11.51a1.38,1.38,0,0,1-.94-.38,1.33,1.33,0,0,1,0-1.87L34.3,6a1.32,1.32,0,1,1,1.86,1.87l-3.23,3.24A1.36,1.36,0,0,1,32,11.51Z"/><path class="cls-1" d="M7.09,36.41A1.29,1.29,0,0,1,6.16,36a1.34,1.34,0,0,1,0-1.88l3.24-3.23a1.32,1.32,0,0,1,1.87,1.87L8,36A1.31,1.31,0,0,1,7.09,36.41Z"/><path class="cls-1" d="M35.23,36.22a1.29,1.29,0,0,1-.93-.39l-3.25-3.24a1.33,1.33,0,0,1,1.88-1.87L36.16,34a1.32,1.32,0,0,1-.93,2.26Z"/><path class="cls-1" d="M10.33,11.74a1.28,1.28,0,0,1-.94-.39L6.16,8.12A1.32,1.32,0,0,1,8,6.25l3.23,3.23a1.32,1.32,0,0,1,0,1.87A1.26,1.26,0,0,1,10.33,11.74Z"/><path class="cls-1" d="M20.9,12.49a8.42,8.42,0,1,1-8.41,8.42,8.43,8.43,0,0,1,8.41-8.42m0-2.65A11.07,11.07,0,1,0,32,20.91,11.07,11.07,0,0,0,20.9,9.84Z"/></g></g></g></svg>