<svg xmlns="http://www.w3.org/2000/svg" viewBox="0 0 52.53 34.69"><defs><style>.cls-1{fill:#fff;}</style></defs><g id="Laag_2" data-name="Laag 2"><g id="Layer_1" data-name="Layer 1"><g id="cloudy"><path class="cls-1" d="M43.05,34.69H10.19A10.19,10.19,0,0,1,7,14.82c0-.1,0-.2,0-.3A9.25,9.25,0,0,1,19.92,6a13.36,13.36,0,0,1,24.3,9.79,9.48,9.48,0,0,1-1.17,18.89ZM16.26,7.91a6.62,6.62,0,0,0-6.61,6.61,6.19,6.19,0,0,0,.1,1.08L10,16.86l-1.26.25A7.54,7.54,0,0,0,10.19,32H43.05a6.83,6.83,0,1,0,0-13.66l-.33,0-2,.13.59-1.86a10.54,10.54,0,0,0,.52-3.3,10.72,10.72,0,0,0-20.2-5l-.66,1.26-1.2-.75A6.67,6.67,0,0,0,16.26,7.91Z"/></g></g></g></svg>