<svg xmlns="http://www.w3.org/2000/svg" viewBox="0 0 52.52 52.44"><defs><style>.cls-1{fill:#71b7d3;}.cls-2{fill:#fff;}</style></defs><g id="Laag_2" data-name="Laag 2"><g id="Layer_1" data-name="Layer 1"><g id="flurries"><path class="cls-1" d="M32.55,34.52A2.06,2.06,0,1,0,29.28,32a2.06,2.06,0,1,0,3.27,2.52Z"/><path class="cls-1" d="M23.12,34.52a2.07,2.07,0,1,0-2.89.38A2.07,2.07,0,0,0,23.12,34.52Z"/><path class="cls-1" d="M32.55,51.63a2.06,2.06,0,1,0-3.27-2.51,2.06,2.06,0,0,0,3.27,2.51Z"/><path class="cls-1" d="M23.12,51.63a2.07,2.07,0,1,0-2.89.38A2.06,2.06,0,0,0,23.12,51.63Z"/><path class="cls-1" d="M27.51,43.07a2.07,2.07,0,1,0-2.9.38A2.07,2.07,0,0,0,27.51,43.07Z"/><path class="cls-1" d="M16.74,43.07a2.07,2.07,0,1,0-2.9.38A2.05,2.05,0,0,0,16.74,43.07Z"/><path class="cls-1" d="M38.28,43.07A2.07,2.07,0,1,0,35,40.56a2.07,2.07,0,0,0,3.29,2.51Z"/><path class="cls-2" d="M44.22,15.8a13.18,13.18,0,0,0,.22-2.44A13.36,13.36,0,0,0,19.92,6a9.18,9.18,0,0,0-3.65-.76A9.28,9.28,0,0,0,7,14.52v.3a10.19,10.19,0,0,0,3.19,19.87h5c1.59,0,1.5-2.65,0-2.65h-5A7.54,7.54,0,0,1,8.7,17.11L10,16.86,9.75,15.6a6.11,6.11,0,0,1-.1-1.08A6.63,6.63,0,0,1,16.27,7.9a6.55,6.55,0,0,1,3.46,1l1.21.74.66-1.25a10.71,10.71,0,0,1,19.67,8.29l-.6,1.86,2.06-.14h.32a6.83,6.83,0,1,1,0,13.66H37.32a1.33,1.33,0,1,0,0,2.65h5.73A9.48,9.48,0,0,0,44.22,15.8Z"/></g></g></g></svg>