<svg xmlns="http://www.w3.org/2000/svg" viewBox="0 0 42.08 24.27"><defs><style>.cls-1{fill:#fff;}</style></defs><g id="Laag_2" data-name="Laag 2"><g id="Layer_1" data-name="Layer 1"><g id="fog"><path class="cls-1" d="M29.84,16.52a14.75,14.75,0,0,1-8.66-2.7C14,8.76,8,8.48,1.6,12.9A1,1,0,1,1,.44,11.22C7.53,6.3,14.5,6.6,22.36,12.14c6.17,4.36,13.29,1.88,18.19-1a1,1,0,0,1,1.39.38,1,1,0,0,1-.36,1.4A23.76,23.76,0,0,1,29.84,16.52Z"/><path class="cls-1" d="M29.84,24.27a14.76,14.76,0,0,1-8.66-2.71C14,16.51,8,16.22,1.6,20.65a1,1,0,0,1-1.42-.26A1,1,0,0,1,.44,19c7.09-4.92,14.06-4.63,21.92.92,6.16,4.35,13.29,1.87,18.19-1a1,1,0,0,1,1,1.76A23.67,23.67,0,0,1,29.84,24.27Z"/><path class="cls-1" d="M29.84,8.78a14.69,14.69,0,0,1-8.66-2.71C14,1,8,.74,1.6,5.16A1,1,0,0,1,.18,4.9,1,1,0,0,1,.44,3.48C7.53-1.44,14.5-1.15,22.36,4.4c6.16,4.35,13.29,1.88,18.19-1a1,1,0,0,1,1,1.77A23.67,23.67,0,0,1,29.84,8.78Z"/></g></g></g></svg>