<svg xmlns="http://www.w3.org/2000/svg" viewBox="0 0 51.37 50.53"><defs><style>.cls-1{fill:#f5a714;}.cls-2{fill:#fff;}</style></defs><g id="Laag_2" data-name="Laag 2"><g id="Layer_1" data-name="Layer 1"><g id="mostlysunny"><path class="cls-1" d="M28.83,7.61A1.32,1.32,0,0,1,27.5,6.28v-5a1.33,1.33,0,0,1,2.65,0v5A1.33,1.33,0,0,1,28.83,7.61Z"/><path class="cls-1" d="M12.56,23.92h-5a1.33,1.33,0,0,1,0-2.65h5a1.33,1.33,0,0,1,0,2.65Z"/><path class="cls-1" d="M50.05,23.92h-5a1.33,1.33,0,1,1,0-2.65h5a1.33,1.33,0,0,1,0,2.65Z"/><path class="cls-1" d="M40.84,12.3a1.29,1.29,0,0,1-.93-.39,1.32,1.32,0,0,1,0-1.87l3.5-3.51A1.32,1.32,0,1,1,45.28,8.4l-3.5,3.51A1.33,1.33,0,0,1,40.84,12.3Z"/><path class="cls-1" d="M44.35,39.08a1.33,1.33,0,0,1-.94-.39l-3.5-3.51a1.32,1.32,0,0,1,1.87-1.87l3.5,3.51a1.32,1.32,0,0,1,0,1.87A1.29,1.29,0,0,1,44.35,39.08Z"/><path class="cls-1" d="M17.36,12.54a1.36,1.36,0,0,1-.94-.38L12.91,8.65a1.33,1.33,0,1,1,1.88-1.87l3.5,3.5a1.33,1.33,0,0,1,0,1.88A1.35,1.35,0,0,1,17.36,12.54Z"/><path class="cls-2" d="M26.73,50.53h-20a6.73,6.73,0,0,1-2.46-13,6.17,6.17,0,0,1,6.16-6,6.06,6.06,0,0,1,2,.35A8.66,8.66,0,0,1,28.1,37,9.28,9.28,0,0,1,28,38.08a6.29,6.29,0,0,1-1.31,12.45ZM10.42,34.21a3.51,3.51,0,0,0-3.51,3.51,3,3,0,0,0,.06.57l.2,1.27-1.26.25a4.08,4.08,0,0,0,.81,8.07h20a3.65,3.65,0,1,0,0-7.29h-.16l-2,.14.56-1.87A5.82,5.82,0,0,0,25.45,37a6,6,0,0,0-11.33-2.8l-.65,1.26-1.21-.75A3.51,3.51,0,0,0,10.42,34.21Z"/><path class="cls-1" d="M40.82,22.59a12,12,0,1,0-24,0,11.05,11.05,0,0,0,.18,2,1.36,1.36,0,0,0,1.42,1.31,1.33,1.33,0,0,0,1.13-.65,3.21,3.21,0,0,0,0-1.54,8.59,8.59,0,0,1-.08-1.13,9.35,9.35,0,1,1,18.7,0,9.4,9.4,0,0,1-.11,1.19c-.05.39-.11.77-.19,1.15A8.56,8.56,0,0,1,37,27.07a10.16,10.16,0,0,1-1.33,1.86A8.28,8.28,0,0,1,34,30.38a13.52,13.52,0,0,1-2.1,1c-.29.12-.63.13-.91.28a1.37,1.37,0,0,0-.62.68,1.25,1.25,0,0,0-.1.51,1.39,1.39,0,0,0,1.39,1.36h0A11.85,11.85,0,0,0,40.82,22.59Z"/></g></g></g></svg>