<svg xmlns="http://www.w3.org/2000/svg" viewBox="0 0 52.21 49.78"><defs><style>.cls-1{fill:#f5a714;}.cls-2{fill:#fff;}</style></defs><g id="Laag_2" data-name="Laag 2"><g id="Layer_1" data-name="Layer 1"><g id="mostlycloudy"><path class="cls-1" d="M36.47,5.85a1.23,1.23,0,0,1-1.23-1.23V1.23a1.23,1.23,0,1,1,2.45,0V4.62A1.23,1.23,0,0,1,36.47,5.85Z"/><path class="cls-1" d="M51,17h-3.4a1.23,1.23,0,0,1,0-2.45H51A1.23,1.23,0,1,1,51,17Z"/><path class="cls-1" d="M44.68,9.06a1.16,1.16,0,0,1-.86-.36,1.22,1.22,0,0,1,0-1.73l2.39-2.4a1.23,1.23,0,0,1,1.74,0,1.25,1.25,0,0,1,0,1.74L45.55,8.7A1.18,1.18,0,0,1,44.68,9.06Z"/><path class="cls-1" d="M47.08,27.37a1.24,1.24,0,0,1-.87-.36l-2.39-2.4a1.23,1.23,0,0,1,1.73-1.74l2.4,2.4A1.25,1.25,0,0,1,48,27,1.24,1.24,0,0,1,47.08,27.37Z"/><path class="cls-1" d="M28.63,9.23a1.22,1.22,0,0,1-.87-.36l-2.4-2.4A1.23,1.23,0,0,1,27.1,4.74l2.4,2.4a1.23,1.23,0,0,1-.87,2.09Z"/><path class="cls-2" d="M38.92,49.78H9.31a9.31,9.31,0,0,1-3-18.13c0-.06,0-.12,0-.18A8.49,8.49,0,0,1,14.79,23a8.41,8.41,0,0,1,3.24.65,12.17,12.17,0,0,1,22.28,6.79,12,12,0,0,1-.18,2.08,8.68,8.68,0,0,1-1.21,17.27ZM14.79,25.64A5.83,5.83,0,0,0,9,31.47a5.53,5.53,0,0,0,.08,1l.21,1.26L8,33.93a6.67,6.67,0,0,0,1.31,13.2H38.92a6,6,0,0,0,0-12.05h-.3l-2,.14.6-1.86A9.52,9.52,0,0,0,19.71,26L19,27.25l-1.21-.74A5.68,5.68,0,0,0,14.79,25.64Z"/><path class="cls-1" d="M38,8a7.64,7.64,0,0,0-8.91,6.15A6.47,6.47,0,0,0,29,15.16a1,1,0,0,0,.9,1.05c1.05.13,1-1,1.17-1.74a5.66,5.66,0,1,1,11.14,2,4.91,4.91,0,0,1-.71,2,7.19,7.19,0,0,1-1.95,1.8.8.8,0,0,0,.42,1.41c.82.18,1.49-.43,2.09-1a6.93,6.93,0,0,0,1.65-2.38,6.46,6.46,0,0,0,.47-1.49A7.66,7.66,0,0,0,38,8Z"/></g></g></g></svg>