<svg xmlns="http://www.w3.org/2000/svg" viewBox="0 0 52.53 52.68"><defs><style>.cls-1{fill:#1b86d0;}.cls-2{fill:#fff;}</style></defs><g id="Laag_2" data-name="Laag 2"><g id="Layer_1" data-name="Layer 1"><g id="rain"><path class="cls-1" d="M18.81,52.68a1.31,1.31,0,0,1-1.22-1.84l9.3-21.92a1.33,1.33,0,0,1,2.44,1L20,51.88A1.32,1.32,0,0,1,18.81,52.68Z"/><path class="cls-1" d="M27.38,46.88a1.29,1.29,0,0,1-.51-.1,1.32,1.32,0,0,1-.72-1.73l6.59-16a1.31,1.31,0,0,1,1.72-.72,1.33,1.33,0,0,1,.73,1.73l-6.59,16A1.33,1.33,0,0,1,27.38,46.88Z"/><path class="cls-1" d="M15.28,46.88a1.29,1.29,0,0,1-.51-.1,1.32,1.32,0,0,1-.71-1.73l6.58-16a1.33,1.33,0,1,1,2.45,1l-6.59,16A1.32,1.32,0,0,1,15.28,46.88Z"/><path class="cls-2" d="M44.22,15.8A13.36,13.36,0,0,0,19.92,6a9.15,9.15,0,0,0-3.65-.76A9.27,9.27,0,0,0,7,14.52v.3a10.19,10.19,0,0,0,3.18,19.87h5c1.6,0,1.51-2.65,0-2.65h-5A7.54,7.54,0,0,1,8.71,17.11L10,16.86,9.75,15.6a7.24,7.24,0,0,1-.09-1.08A6.59,6.59,0,0,1,19.73,8.89l1.21.74.66-1.25a10.72,10.72,0,0,1,20.2,5,10.91,10.91,0,0,1-.52,3.31l-.6,1.86,2-.14h.32a6.83,6.83,0,1,1,0,13.66H37.32a1.33,1.33,0,1,0,0,2.65h5.73A9.48,9.48,0,0,0,44.22,15.8Z"/></g></g></g></svg>