<svg xmlns="http://www.w3.org/2000/svg" viewBox="0 0 52.53 50.23"><defs><style>.cls-1{fill:#71b7d3;}.cls-2{fill:#fff;}</style></defs><g id="Laag_2" data-name="Laag 2"><g id="Layer_1" data-name="Layer 1"><g id="sleet"><polygon class="cls-1" points="15.65 49.06 12.88 49.98 11.95 47.22 14.72 46.29 15.65 49.06"/><path class="cls-1" d="M15.9,44.32a1,1,0,0,1-.44-.09,1.19,1.19,0,0,1-.66-1.55l5.05-12.27a1.19,1.19,0,1,1,2.2.91L17,43.58A1.2,1.2,0,0,1,15.9,44.32Z"/><rect class="cls-1" x="18.38" y="46.93" width="2.92" height="2.92" transform="translate(-14.3 8.77) rotate(-18.46)"/><path class="cls-1" d="M21.94,44.64a1.29,1.29,0,0,1-.46-.09A1.2,1.2,0,0,1,20.84,43l5-12.27a1.2,1.2,0,0,1,2.21.91L23,43.9A1.19,1.19,0,0,1,21.94,44.64Z"/><rect class="cls-1" x="24.41" y="46.93" width="2.91" height="2.92" transform="translate(-14 10.69) rotate(-18.47)"/><path class="cls-1" d="M28,44.64a1.24,1.24,0,0,1-.45-.09A1.2,1.2,0,0,1,26.87,43l5.05-12.27a1.19,1.19,0,0,1,2.2.91l-5,12.27A1.2,1.2,0,0,1,28,44.64Z"/><path class="cls-2" d="M44.22,15.81A13.37,13.37,0,0,0,19.91,6a9.14,9.14,0,0,0-3.65-.75A9.27,9.27,0,0,0,7,14.52v.3a10.19,10.19,0,0,0,3.19,19.87h5c1.59,0,1.5-2.65,0-2.65h-5a7.53,7.53,0,0,1-1.5-14.92L10,16.86l-.2-1.26a6.19,6.19,0,0,1-.1-1.08A6.59,6.59,0,0,1,19.72,8.89l1.21.74.66-1.25a10.72,10.72,0,0,1,20.2,5,10.59,10.59,0,0,1-.52,3.3l-.6,1.86,2-.13.32,0A6.83,6.83,0,0,1,43,32H37.31a1.33,1.33,0,1,0,0,2.65H43a9.48,9.48,0,0,0,1.18-18.88Z"/></g></g></g></svg>