<svg xmlns="http://www.w3.org/2000/svg" viewBox="0 0 39.23 39.23"><defs><style>.cls-1{fill:#71b7d3;}</style></defs><g id="Laag_2" data-name="Laag 2"><g id="Layer_1" data-name="Layer 1"><g id="snow"><path class="cls-1" d="M38.25,18.64H33l2.19-2.19a1,1,0,0,0-1.39-1.39l-3.57,3.58H22l5.86-5.86H32.9a1,1,0,1,0,0-2H29.8l3.69-3.69A1,1,0,1,0,32.1,5.75L28.41,9.42V6.33a1,1,0,1,0-1.95,0v5.06L20.6,17.25V9l3.57-3.57A1,1,0,0,0,22.78,4L20.6,6.19V1a1,1,0,0,0-2,0V6.19L16.45,4a1,1,0,1,0-1.39,1.39L18.63,9v8.29l-5.85-5.86V6.33a1,1,0,0,0-2,0V9.42L7.13,5.75A1,1,0,0,0,5.74,7.13l3.68,3.69H6.33a1,1,0,1,0,0,2h5.06l5.86,5.86H9L5.39,15.06A1,1,0,1,0,4,16.45l2.19,2.19H1a1,1,0,1,0,0,2H6.19L4,22.78a1,1,0,0,0,0,1.39,1,1,0,0,0,.69.29,1,1,0,0,0,.7-.29L9,20.6h8.29l-5.86,5.86H6.33a1,1,0,1,0,0,1.95H9.42L5.74,32.1a1,1,0,0,0,0,1.39,1.07,1.07,0,0,0,.7.29,1,1,0,0,0,.69-.29l3.68-3.69v3.1a1,1,0,0,0,2,0V27.84L18.63,22v8.29l-3.57,3.57a1,1,0,0,0,0,1.39,1,1,0,0,0,1.39,0L18.63,33v5.21a1,1,0,0,0,2,0V33l2.18,2.19a1,1,0,0,0,.7.29,1,1,0,0,0,.69-.29,1,1,0,0,0,0-1.39L20.6,30.27V22l5.86,5.86V32.9a1,1,0,1,0,1.95,0V29.8l3.69,3.69a1,1,0,0,0,.69.29,1.07,1.07,0,0,0,.7-.29,1,1,0,0,0,0-1.39L29.8,28.41h3.1a1,1,0,1,0,0-1.95H27.84L22,20.6h8.29l3.57,3.57a1,1,0,0,0,1.39,0,1,1,0,0,0,0-1.39L33,20.6h5.21a1,1,0,1,0,0-2Z"/></g></g></g></svg>