<svg xmlns="http://www.w3.org/2000/svg" viewBox="0 0 52.52 52.76"><defs><style>.cls-1{fill:#1b86d0;}.cls-2{fill:#f5a714;}.cls-3{fill:#fff;}</style></defs><g id="Laag_2" data-name="Laag 2"><g id="Layer_1" data-name="Layer 1"><g id="tstorms"><path class="cls-1" d="M13,46.52a1.44,1.44,0,0,1-.57-.13,1.32,1.32,0,0,1-.62-1.77l2.77-5.78A1.32,1.32,0,0,1,17,40l-2.77,5.78A1.33,1.33,0,0,1,13,46.52Z"/><path class="cls-1" d="M6.44,46.52a1.52,1.52,0,0,1-.58-.13,1.33,1.33,0,0,1-.61-1.77L8,38.84A1.32,1.32,0,1,1,10.4,40L7.63,45.76A1.31,1.31,0,0,1,6.44,46.52Z"/><path class="cls-1" d="M40.14,46.52a1.48,1.48,0,0,1-.58-.13,1.32,1.32,0,0,1-.62-1.77l2.77-5.78a1.32,1.32,0,0,1,1.77-.62A1.31,1.31,0,0,1,44.1,40l-2.77,5.78A1.32,1.32,0,0,1,40.14,46.52Z"/><path class="cls-1" d="M33.56,46.52a1.44,1.44,0,0,1-.57-.13,1.32,1.32,0,0,1-.62-1.77l2.77-5.78A1.32,1.32,0,0,1,37.53,40l-2.78,5.78A1.31,1.31,0,0,1,33.56,46.52Z"/><path class="cls-2" d="M21,52.76a1.34,1.34,0,0,1-.68-.2,1.32,1.32,0,0,1-.45-1.81l7.91-13.07H19.55l9.32-13.24A1.33,1.33,0,0,1,31,26L24.65,35h7.87L22.17,52.12A1.32,1.32,0,0,1,21,52.76Z"/><path class="cls-3" d="M44.22,15.8A13.37,13.37,0,0,0,19.91,6a9.06,9.06,0,0,0-3.64-.76A9.28,9.28,0,0,0,7,14.52v.3a10.19,10.19,0,0,0,3.19,19.87h5c1.59,0,1.5-2.65,0-2.65h-5A7.54,7.54,0,0,1,8.7,17.11L10,16.87,9.75,15.6a6.19,6.19,0,0,1-.1-1.08A6.6,6.6,0,0,1,19.73,8.89l1.2.74.67-1.25a10.72,10.72,0,0,1,20.2,5,10.91,10.91,0,0,1-.52,3.31l-.61,1.86,2.06-.14h.32a6.83,6.83,0,1,1,0,13.66H37.32a1.33,1.33,0,1,0,0,2.65h5.73A9.48,9.48,0,0,0,44.22,15.8Z"/></g></g></g></svg>