<svg xmlns="http://www.w3.org/2000/svg" viewBox="0 0 52.52 34.69"><defs><style>.cls-1{fill:#fff;}</style></defs><g id="Laag_2" data-name="Laag 2"><g id="Layer_1" data-name="Layer 1"><g id="unknown"><path class="cls-1" d="M43.05,34.69H10.19A10.19,10.19,0,0,1,7,14.82v-.3A9.24,9.24,0,0,1,19.91,6a13.38,13.38,0,0,1,24.54,7.36,13.16,13.16,0,0,1-.23,2.43,9.48,9.48,0,0,1-1.17,18.89ZM16.27,7.91a6.62,6.62,0,0,0-6.62,6.61,6.11,6.11,0,0,0,.1,1.08L10,16.86l-1.26.25A7.54,7.54,0,0,0,10.19,32H43.05a6.83,6.83,0,1,0,0-13.66h-.33l-2,.14.61-1.86a10.89,10.89,0,0,0,.52-3.3,10.72,10.72,0,0,0-20.2-5l-.67,1.25-1.2-.74A6.57,6.57,0,0,0,16.27,7.91Z"/><path class="cls-1" d="M27.23,24.2a1.33,1.33,0,0,1-1.32-1.33c0-1.88.11-3.23,1.56-4.85.28-.31.59-.62.89-.93,1.18-1.19,1.89-2,1.85-3.05a2.32,2.32,0,0,0-2-2.25,3.17,3.17,0,0,0-3,.88,2.57,2.57,0,0,0-.58,1.77A1.32,1.32,0,0,1,22,14.6a5.24,5.24,0,0,1,1.25-3.7,5.79,5.79,0,0,1,5.67-1.66,5,5,0,0,1,3.91,4.68c.11,2.3-1.4,3.82-2.61,5-.28.27-.55.54-.8.83-.82.91-.88,1.5-.88,3.08A1.34,1.34,0,0,1,27.23,24.2Z"/><path class="cls-1" d="M28.62,28a1.36,1.36,0,1,1-1.36-1.37A1.36,1.36,0,0,1,28.62,28Z"/><path class="cls-1" d="M27.26,29.86A1.9,1.9,0,1,1,29.16,28,1.89,1.89,0,0,1,27.26,29.86Zm0-2.73a.84.84,0,0,0-.83.84.84.84,0,0,0,1.67,0A.84.84,0,0,0,27.26,27.13Z"/></g></g></g></svg>